<?xml version="1.0" standalone="no"?>
<!DOCTYPE svg PUBLIC "-//W3C//DTD SVG 20010904//EN"
 "http://www.w3.org/TR/2001/REC-SVG-20010904/DTD/svg10.dtd">
<svg version="1.0" xmlns="http://www.w3.org/2000/svg"
 width="294.000000pt" height="294.000000pt" viewBox="0 0 294.000000 294.000000"
 preserveAspectRatio="xMidYMid meet">
<metadata>
Created by potrace 1.14, written by Peter Selinger 2001-2017
</metadata>
<g transform="translate(0.000000,294.000000) scale(0.100000,-0.100000)"
fill="#000000" stroke="none">
<path d="M95 2924 c-16 -8 -38 -23 -48 -32 -49 -44 -47 6 -47 -1432 l0 -1347
31 -42 c55 -77 -55 -72 1452 -69 l1354 3 37 29 c21 16 44 43 52 60 11 26 13
263 11 1386 -2 1317 -3 1356 -21 1383 -11 16 -35 39 -55 53 l-35 24 -1351 0
c-1206 0 -1353 -2 -1380 -16z"/>
</g>
</svg>
